<?xml version="1.0" encoding="utf-8"?>
<!-- Generator: Adobe Illustrator 25.0.0, SVG Export Plug-In . SVG Version: 6.00 Build 0)  -->
<svg version="1.1" id="Layer_1" xmlns="http://www.w3.org/2000/svg" xmlns:xlink="http://www.w3.org/1999/xlink" x="0px" y="0px"
	 viewBox="0 0 50 50" style="enable-background:new 0 0 50 50;" xml:space="preserve">
<style type="text/css">
	.st0{fill:#FFFFFF;}
	.st1{fill:#223756;}
</style>
<path class="st0" d="M45.6,50H4.4C2,50,0,48,0,45.6V4.4C0,2,2,0,4.4,0h41.1C48,0,50,2,50,4.4v41.1C50,48,48,50,45.6,50z"/>
<g>
	<rect x="27.5" y="32.6" class="st1" width="2.3" height="2.3"/>
	<rect x="30.4" y="32.6" class="st1" width="2.3" height="2.3"/>
	<rect x="27.5" y="35.4" class="st1" width="2.3" height="2.3"/>
	<rect x="30.4" y="35.4" class="st1" width="2.3" height="2.3"/>
	<polygon class="st1" points="17.6,38.5 30.1,27.7 41.1,37 30.1,26.1 	"/>
	<polyline class="st1" points="34.8,23.1 47.5,10.4 30.2,10.4 15.8,24.7 15.8,13.5 9.5,19.9 9.5,31.1 0.9,39.6 9,39.6 30,18.6 	"/>
	<polygon class="st1" points="11.1,39.6 15,39.6 30.1,24.5 45.2,39.6 49.1,39.6 30.1,20.6 	"/>
</g>
</svg>
