<svg id="Layer_1" data-name="Layer 1" xmlns="http://www.w3.org/2000/svg" viewBox="0 0 148.59 48"><defs><style>.cls-1{fill:#fff;}</style></defs><title>Soulmate</title><path class="cls-1" d="M79.92,27.7h1.43a2.89,2.89,0,0,0,1.16-.22,1.68,1.68,0,0,0,.75-.63,1.7,1.7,0,0,0,.26-1,1.73,1.73,0,0,0-.26-1,1.62,1.62,0,0,0-.75-.63,2.9,2.9,0,0,0-1.16-.21h-2v5.32h.56Zm2.63-2.81a1.25,1.25,0,0,1,.41,1,1.22,1.22,0,0,1-.41,1,1.87,1.87,0,0,1-1.22.34H79.92V24.54h1.41A1.87,1.87,0,0,1,82.55,24.89Z" transform="translate(-0.33 -0.93)"/><path class="cls-1" d="M85.68,27.69h1.43a2.85,2.85,0,0,0,.42,0l1.22,1.73h.62l-1.31-1.84.21-.07a1.6,1.6,0,0,0,.75-.62,1.7,1.7,0,0,0,.27-1,1.73,1.73,0,0,0-.27-1,1.62,1.62,0,0,0-.75-.63,2.9,2.9,0,0,0-1.16-.21h-2v5.32h.56Zm2.63-2.8a1.25,1.25,0,0,1,.41,1,1.22,1.22,0,0,1-.41,1,1.86,1.86,0,0,1-1.21.35H85.68V24.54H87.1A1.86,1.86,0,0,1,88.31,24.89Z" transform="translate(-0.33 -0.93)"/><path class="cls-1" d="M93.26,24a3.14,3.14,0,0,0-1.12.2,2.78,2.78,0,0,0-.88.57,2.69,2.69,0,0,0-.59.86,2.74,2.74,0,0,0-.21,1.08,2.69,2.69,0,0,0,.21,1.07,2.59,2.59,0,0,0,.59.86,2.43,2.43,0,0,0,.89.57,3.18,3.18,0,0,0,2.22,0,2.61,2.61,0,0,0,1.47-1.42,2.88,2.88,0,0,0,0-2.16,2.56,2.56,0,0,0-.58-.86,2.66,2.66,0,0,0-.89-.57A3.08,3.08,0,0,0,93.26,24Zm2.06,1.83a2.26,2.26,0,0,1,.17.88,2.21,2.21,0,0,1-.17.87,2.19,2.19,0,0,1-1.17,1.17,2.38,2.38,0,0,1-.89.16,2.35,2.35,0,0,1-.89-.16,2.15,2.15,0,0,1-.71-.47,2,2,0,0,1-.47-.7,2.34,2.34,0,0,1,0-1.75,2.1,2.1,0,0,1,1.18-1.16,2.35,2.35,0,0,1,.89-.17,2.39,2.39,0,0,1,.89.17,1.94,1.94,0,0,1,.7.46A2.1,2.1,0,0,1,95.32,25.84Z" transform="translate(-0.33 -0.93)"/><path class="cls-1" d="M98.18,27.7h1.43a2.89,2.89,0,0,0,1.16-.22,1.65,1.65,0,0,0,1-1.6,1.81,1.81,0,0,0-.26-1,1.72,1.72,0,0,0-.75-.63,2.9,2.9,0,0,0-1.16-.21h-2v5.32h.56Zm2.62-2.81a1.22,1.22,0,0,1,.42,1,1.2,1.2,0,0,1-.42,1,1.84,1.84,0,0,1-1.21.34H98.18V24.54h1.41A1.84,1.84,0,0,1,100.8,24.89Z" transform="translate(-0.33 -0.93)"/><polygon class="cls-1" points="106.8 27.96 103.6 27.96 103.6 25.99 106.35 25.99 106.35 25.51 103.6 25.51 103.6 23.62 106.69 23.62 106.69 23.13 103.04 23.13 103.04 28.45 106.8 28.45 106.8 27.96"/><path class="cls-1" d="M108.76,24.06v5.32h.56V27.69h1.43a2.85,2.85,0,0,0,.42,0l1.22,1.73H113l-1.31-1.84.21-.07a1.6,1.6,0,0,0,.75-.62,1.7,1.7,0,0,0,.26-1,1.73,1.73,0,0,0-.26-1,1.62,1.62,0,0,0-.75-.63,2.9,2.9,0,0,0-1.16-.21Zm3.19.83a1.25,1.25,0,0,1,.41,1,1.22,1.22,0,0,1-.41,1,1.87,1.87,0,0,1-1.22.35h-1.41V24.54h1.41A1.87,1.87,0,0,1,112,24.89Z" transform="translate(-0.33 -0.93)"/><polygon class="cls-1" points="115.88 28.45 115.88 23.62 117.75 23.62 117.75 23.13 113.45 23.13 113.45 23.62 115.32 23.62 115.32 28.45 115.88 28.45"/><rect class="cls-1" x="118.95" y="23.13" width="0.56" height="5.32"/><polygon class="cls-1" points="125.32 27.96 122.12 27.96 122.12 25.99 124.87 25.99 124.87 25.51 122.12 25.51 122.12 23.62 125.2 23.62 125.2 23.13 121.55 23.13 121.55 28.45 125.32 28.45 125.32 27.96"/><path class="cls-1" d="M129.56,28.82a2.33,2.33,0,0,1-.82.12,2.81,2.81,0,0,1-1-.18,2.24,2.24,0,0,1-.75-.46l-.23.43a2.26,2.26,0,0,0,.84.5,3.41,3.41,0,0,0,1.14.19,2.58,2.58,0,0,0,1.12-.2,1.45,1.45,0,0,0,.65-.53,1.32,1.32,0,0,0,.21-.72,1.18,1.18,0,0,0-.17-.68,1.28,1.28,0,0,0-.48-.41,3,3,0,0,0-.63-.25l-.7-.19a4.86,4.86,0,0,1-.64-.19,1.21,1.21,0,0,1-.47-.29.72.72,0,0,1-.18-.51.86.86,0,0,1,.15-.49,1,1,0,0,1,.46-.34,2,2,0,0,1,.79-.13,2.74,2.74,0,0,1,1.46.44l.19-.45a2.31,2.31,0,0,0-.76-.34,3,3,0,0,0-.89-.13,2.64,2.64,0,0,0-1.1.2,1.52,1.52,0,0,0-.65.53,1.35,1.35,0,0,0-.21.73,1.22,1.22,0,0,0,.18.69,1.47,1.47,0,0,0,.47.42,2.66,2.66,0,0,0,.65.25c.23.07.46.13.7.18a4.67,4.67,0,0,1,.63.2,1.12,1.12,0,0,1,.47.3.68.68,0,0,1,.18.5.8.8,0,0,1-.15.47A1,1,0,0,1,129.56,28.82Z" transform="translate(-0.33 -0.93)"/><polygon class="cls-1" points="137.75 27.96 134.77 27.96 134.77 23.13 134.21 23.13 134.21 28.45 137.75 28.45 137.75 27.96"/><polygon class="cls-1" points="141.79 23.13 137.49 23.13 137.49 23.62 139.36 23.62 139.36 28.45 139.92 28.45 139.92 23.62 141.79 23.62 141.79 23.13"/><path class="cls-1" d="M147,24.39a3.25,3.25,0,0,0-1.5-.33h-2.16v5.32h2.16A3.25,3.25,0,0,0,147,29a2.52,2.52,0,0,0,1-.94,2.92,2.92,0,0,0,0-2.77A2.52,2.52,0,0,0,147,24.39Zm.51,3.46a2,2,0,0,1-.81.76,2.54,2.54,0,0,1-1.23.28h-1.57V24.54h1.57a2.54,2.54,0,0,1,1.23.28,2,2,0,0,1,.81.76,2.37,2.37,0,0,1,0,2.27Z" transform="translate(-0.33 -0.93)"/><path class="cls-1" d="M82.25,13.71A1.34,1.34,0,0,1,82.94,15c0,1.16-.17,1.39-.89,1.39s-.87-.34-.87-1.39a2,2,0,0,1,0-.51H78.85a9.6,9.6,0,0,0-.14,1.92c0,2.15,1,2.89,3.29,2.89,2.76,0,3.57-1,3.57-4.25,0-2.27-.36-2.91-1.15-3.47S83,11,81.91,10.35c-.46-.27-.66-.49-.66-1.28S81.38,8,82.07,8s.83.27.83,1.12a4.56,4.56,0,0,1,0,.59h2.35a4.62,4.62,0,0,0,.15-1.46c0-2.31-.87-3-3.31-3-2.69,0-3.38.89-3.38,3.45,0,1.81,0,2.89.79,3.54A25,25,0,0,0,82.25,13.71Z" transform="translate(-0.33 -0.93)"/><path class="cls-1" d="M90.76,19.33c1.74,0,2.55-.27,3-1.12s.67-1.66.67-6-.2-5.1-.67-5.95-1.28-1.12-3-1.12-2.56.29-3,1.12-.67,1.65-.67,6,.2,5.13.67,6S89,19.33,90.76,19.33Zm-.7-11c.07-.24.25-.35.7-.35s.62.11.71.35a17.09,17.09,0,0,1,.16,3.84A17,17,0,0,1,91.47,16c-.09.24-.26.33-.71.33s-.63-.09-.7-.33-.18-.85-.18-3.78S89.93,8.67,90.06,8.33Z" transform="translate(-0.33 -0.93)"/><path class="cls-1" d="M99.76,19.33c1.74,0,2.55-.23,3-1s.6-1.2.65-3.45V5.42h-2.82v9.47c0,1.28-.11,1.39-.81,1.39S99,16.17,99,14.89V5.42H96.06v9.47c0,2.25.27,2.83.67,3.45S98,19.33,99.76,19.33Z" transform="translate(-0.33 -0.93)"/><polygon class="cls-1" points="110.69 15.13 107.76 15.13 107.76 4.49 104.92 4.49 104.92 18.17 110.69 18.17 110.69 15.13"/><polygon class="cls-1" points="114.79 9.96 114.9 9.96 117 18.17 118.24 18.17 120.32 9.96 120.43 9.96 120.43 18.17 123.03 18.17 123.02 4.49 119.02 4.49 117.61 10.44 117.48 10.44 116.22 4.49 112.21 4.49 112.21 18.17 114.79 18.17 114.79 9.96"/><path class="cls-1" d="M128,15.93h1.37l.23,3.17h2.93L131.12,5.42h-4.77L124.88,19.1h2.86Zm.57-7.66h.2l.47,4.9h-1.12Z" transform="translate(-0.33 -0.93)"/><polygon class="cls-1" points="134.71 18.17 137.55 18.17 137.55 7.38 139.7 7.38 139.7 4.49 132.56 4.49 132.56 7.38 134.71 7.38 134.71 18.17"/><polygon class="cls-1" points="147.31 15.13 144.11 15.13 144.11 12.55 147.27 12.55 147.27 9.78 144.11 9.78 144.11 7.38 147.32 7.38 147.32 4.49 141.27 4.49 141.27 18.17 147.31 18.17 147.31 15.13"/><rect class="cls-1" x="40.05" y="33.38" width="3.36" height="3.36"/><rect class="cls-1" x="44.42" y="33.38" width="3.36" height="3.36"/><rect class="cls-1" x="40.05" y="37.75" width="3.36" height="3.36"/><rect class="cls-1" x="44.42" y="37.75" width="3.36" height="3.36"/><polygon class="cls-1" points="25.23 42.41 43.98 26.02 60.46 40.14 43.98 23.67 25.23 42.41"/><polygon class="cls-1" points="15.37 44.05 21.22 44.05 43.99 21.27 66.77 44.05 72.61 44.05 43.99 15.43 15.37 44.05"/><path class="cls-1" d="M76.7,45.57,51.36,20.12,70.55.93H44.38L22.75,22.55l.05-17L13.18,15.2V32.12L.33,45H12.55l31.7-31.68,35.44,35.6,0,0h69.19V45.57ZM80,48.92l-3.34-3.35h0L80,48.92Z" transform="translate(-0.33 -0.93)"/><path class="cls-1" d="M85.24,34.23a.46.46,0,0,0,0-.25,1.54,1.54,0,0,0-.16-.38l0-.08a1.18,1.18,0,0,0-.54-.44,1.63,1.63,0,0,0-.74-.13,2.49,2.49,0,0,0-.73.14c-.23.08-.47.16-.7.26l-.45.18a2.71,2.71,0,0,0-.42.2l-.52.25-.56.27a4,4,0,0,0-.56.34,3.58,3.58,0,0,0-.43.29q-.19.15-.21.24a.52.52,0,0,0,0,.13l0,.22a2.07,2.07,0,0,1,0,.22.83.83,0,0,1,0,.12c0,.06,0,.06.12,0a1.57,1.57,0,0,1,.23-.13l.18-.1.21-.12.27-.15.41-.2.4-.19.28-.13.28-.13-.12.34c-.06.14-.12.3-.2.48l-.22.57c-.08.19-.15.38-.22.57s-.12.34-.17.48-.17.51-.25.77-.17.52-.25.78a.58.58,0,0,0-.05.16c0,.14-.08.28-.11.4a.47.47,0,0,0,0,.22.53.53,0,0,0,.09.16,1,1,0,0,0,.24.2.94.94,0,0,0,.32.13c.11,0,.18,0,.2,0s0,0,0-.07a.49.49,0,0,1,0-.11,5.41,5.41,0,0,1,.12-.58l.18-.58c.1-.28.19-.56.28-.84l.28-.84.19-.53c.08-.22.16-.46.24-.71s.15-.49.22-.73.12-.46.16-.63l.38-.16.4-.15.4-.09a3.11,3.11,0,0,1,.43,0,1.75,1.75,0,0,1,.41.08.86.86,0,0,1,.33.23l0,.05,0,0,0,0h0v0h0s0,.07,0,.06,0,0,0,0,0,0,.05,0l0-.06A.14.14,0,0,0,85.24,34.23Z" transform="translate(-0.33 -0.93)"/><path class="cls-1" d="M84.32,38.7a2.14,2.14,0,0,0,.12-.28l.08-.23c.06-.14.09-.26.12-.35s0-.2.09-.33a2,2,0,0,0,.06-.5,1,1,0,0,0-.15-.49l0,0,0,0v0a.69.69,0,0,0-.42-.19,1.56,1.56,0,0,0-.61,0,.85.85,0,0,0-.22.09l-.2.14a1.09,1.09,0,0,0-.22.25l0,0,0,0,0,0-.09.14a.61.61,0,0,0-.1.14,5,5,0,0,0-.26.52,3.64,3.64,0,0,0-.14.44,3.73,3.73,0,0,0-.12.58,2.41,2.41,0,0,0,0,.6.49.49,0,0,0,.19.37,1.34,1.34,0,0,0,.36.18l.14,0,.15,0h.26a1.05,1.05,0,0,0,.42-.25.18.18,0,0,0,0,.07l0,0a.43.43,0,0,0,.25.14.6.6,0,0,0,.28,0h0l.06,0a1.44,1.44,0,0,0,.31-.22l.15-.18.16-.26.14-.25a.43.43,0,0,0,.06-.15s0,0,0-.07-.07,0-.09,0l-.1.13-.11.17a1.63,1.63,0,0,1-.11.17l-.09.13-.1.12s-.07.06-.1.06,0,0,0-.05a.41.41,0,0,1,0-.09.89.89,0,0,1-.08-.17L84.18,39l.08-.13ZM84,37.47l-.06.35a6.53,6.53,0,0,1-.32,1.09l-.09.2-.09.2a.58.58,0,0,1-.1.12.28.28,0,0,1-.14.09.12.12,0,0,1-.1,0l0-.05a1.34,1.34,0,0,1,0-.35,2.34,2.34,0,0,1,0-.38c0-.12,0-.24.06-.35s.06-.2.09-.28.07-.18.1-.25.06-.15.09-.21l.11-.21.11-.24a.25.25,0,0,1,.05-.08,1.13,1.13,0,0,1,.1-.13.13.13,0,0,1,.13-.06.1.1,0,0,1,.08.05.36.36,0,0,1,0,.09s0,.08,0,.14A1.61,1.61,0,0,1,84,37.47Z" transform="translate(-0.33 -0.93)"/><path class="cls-1" d="M92.74,36.5c.13-.1.28-.21.43-.34a4,4,0,0,0,.41-.41,1.94,1.94,0,0,0,.28-.48,1.19,1.19,0,0,0,.06-.53c0-.07,0-.15,0-.22a.72.72,0,0,0-.09-.2.52.52,0,0,0-.14-.16.63.63,0,0,0-.22-.09.49.49,0,0,0-.29,0,1.85,1.85,0,0,0-.29.13,2.48,2.48,0,0,0-.26.19c-.08.07-.15.14-.22.19a7.56,7.56,0,0,0-.73.77,2,2,0,0,0,.08-.41,1.27,1.27,0,0,0,0-.39,1,1,0,0,0-.15-.33.8.8,0,0,0-.34-.24l-.09,0H91a.22.22,0,0,0-.12,0,.06.06,0,0,0,0,.07,1.23,1.23,0,0,0,0,.16.48.48,0,0,1,0,.18.82.82,0,0,1,0,.27l-.09.26c-.07.23-.15.46-.24.7s-.18.46-.27.68l-.23.6c-.07.2-.15.39-.23.59s-.07.19-.09.29a1,1,0,0,0,0,.29,1.31,1.31,0,0,0,.06.27.85.85,0,0,0,.2.24l.13.06.18,0a.41.41,0,0,0,.16,0,.17.17,0,0,0,.1-.1c0-.18.09-.35.13-.51a3.17,3.17,0,0,1,.17-.49l.1-.05.09,0,.29-.13.3-.14.21-.11L92,37a.34.34,0,0,1,.12.06l.11.12.09.13.05.1a1,1,0,0,1,.13.37,1.67,1.67,0,0,1,0,.39,1.4,1.4,0,0,1-.25.69,1,1,0,0,1-.63.39,2.64,2.64,0,0,1-1,0,2.43,2.43,0,0,1-.9-.32,1.34,1.34,0,0,1-.34-.29,1.78,1.78,0,0,1-.25-.36,1,1,0,0,1-.09-.22.86.86,0,0,1-.06-.23c0-.08,0-.15,0-.22a.19.19,0,0,0-.15-.16.33.33,0,0,0-.31.05,1.1,1.1,0,0,0-.25.21.69.69,0,0,0-.13.29,1.61,1.61,0,0,0,0,.31,1.19,1.19,0,0,0,.1.32,2.44,2.44,0,0,0,.14.28,1.57,1.57,0,0,0,.39.46,2.14,2.14,0,0,0,.52.32,1.94,1.94,0,0,0,.67.21,2.9,2.9,0,0,0,.72,0,3,3,0,0,0,.72-.12A3.35,3.35,0,0,0,92,39.6a2.79,2.79,0,0,0,.57-.37,2.46,2.46,0,0,0,.44-.48,1.78,1.78,0,0,0,.26-.58,1.76,1.76,0,0,0,0-.65,1.62,1.62,0,0,0-.18-.47.92.92,0,0,0-.37-.34.57.57,0,0,0-.24-.08l.08-.06Zm-.93.27q-.44.19-.84.42l.19-.52.18-.52s0-.11.07-.17l.06-.18c.13-.17.27-.33.42-.5s.29-.31.43-.46l.16-.15.17-.11a.42.42,0,0,1,.19-.06.63.63,0,0,1,.21,0,.28.28,0,0,1,.15.13.58.58,0,0,1,.08.18,1.36,1.36,0,0,1,0,.2c0,.07,0,.13,0,.19a1,1,0,0,1-.19.6,2.07,2.07,0,0,1-.48.45A7.45,7.45,0,0,1,91.81,36.77Z" transform="translate(-0.33 -0.93)"/><path class="cls-1" d="M95.59,39.72a.85.85,0,0,0,.19.19A.82.82,0,0,0,96,40l.2.08h.11a.62.62,0,0,0,.23,0l0,0,.07,0,.17-.12.15-.1a1.45,1.45,0,0,0,.15-.2,2.61,2.61,0,0,0,.17-.28,1.82,1.82,0,0,0,.15-.27.74.74,0,0,0,.07-.18s0,0,0-.06a.11.11,0,0,0-.1,0l-.1.15-.12.19-.13.2-.1.14a.63.63,0,0,1-.1.12.26.26,0,0,1-.1.07.1.1,0,0,1,0-.06.41.41,0,0,1,0-.09.36.36,0,0,1-.06-.11l.06-.23a1.2,1.2,0,0,0,.06-.17c.08-.23.15-.43.22-.59s.13-.37.2-.59l0-.11,0-.1s0-.12.07-.22a3.18,3.18,0,0,0,.1-.33c0-.11,0-.21.06-.31a.44.44,0,0,0,0-.21.61.61,0,0,0-.16-.16,1.27,1.27,0,0,0-.23-.12.65.65,0,0,0-.21-.07l-.11,0s0,0,0,.08a2.91,2.91,0,0,1-.07.31,2.38,2.38,0,0,1-.08.26c0,.1-.07.2-.1.31s-.07.21-.1.3a1.65,1.65,0,0,1-.07.21s0,0,0,0,0,0,0,0a4.72,4.72,0,0,1-.26.55,3.49,3.49,0,0,1-.32.5,2.67,2.67,0,0,1-.31.35,1.31,1.31,0,0,1-.34.24c-.06,0-.1,0-.12,0a.32.32,0,0,1,0-.14,1.81,1.81,0,0,1,.14-.53,5.11,5.11,0,0,0,.2-.49,1.42,1.42,0,0,1,0-.16l.06-.17h0v0l.1-.23c0-.12.08-.24.13-.37a2.62,2.62,0,0,0,.09-.38.46.46,0,0,0,0-.27.44.44,0,0,0-.17-.16l-.26-.13-.24-.06-.13,0s0,0,0,.08a1.5,1.5,0,0,1-.07.31c0,.08,0,.18-.08.31s-.08.24-.13.36l-.15.44h0c0,.09-.08.18-.11.27s-.07.18-.09.27-.08.21-.14.34-.11.26-.16.39a1.32,1.32,0,0,0-.06.39.43.43,0,0,0,.11.33s.06,0,.1.06l.16,0a1.9,1.9,0,0,0,.36,0,1.2,1.2,0,0,0,.45-.09,1.43,1.43,0,0,0,.27-.15l.25-.19a.26.26,0,0,0,0,.17A.44.44,0,0,0,95.59,39.72Z" transform="translate(-0.33 -0.93)"/><path class="cls-1" d="M99.7,36.31s0,0,0,0v0l0-.08a.46.46,0,0,0,0-.09,1.46,1.46,0,0,0,0-.17c0-.07.05-.18.08-.32s0-.22.07-.29a.4.4,0,0,0,0-.15.14.14,0,0,0,0-.1l-.16-.1a1.77,1.77,0,0,0-.31-.15c-.11,0-.17,0-.19,0a.09.09,0,0,0,0,.06.63.63,0,0,1,0,.19s0,.1,0,.17a.82.82,0,0,0-.06.19c0,.08,0,.16-.07.24h0l-.08.2a.26.26,0,0,0,.06.24.85.85,0,0,0,.24.22.77.77,0,0,0,.28.12A.17.17,0,0,0,99.7,36.31Z" transform="translate(-0.33 -0.93)"/><path class="cls-1" d="M97.78,39.42a1.45,1.45,0,0,0,.19.17,1.19,1.19,0,0,0,.15.18.42.42,0,0,0,.51.08.22.22,0,0,0,.1,0,1.18,1.18,0,0,0,.31-.22l.15-.18.16-.26a2,2,0,0,0,.13-.25.57.57,0,0,0,.07-.16s0-.05,0-.06-.08,0-.1,0a.73.73,0,0,0-.09.13c0,.05-.07.11-.11.17s-.07.12-.11.17l-.1.13-.1.12a.14.14,0,0,1-.09.06s0,0-.06,0a.41.41,0,0,1,0-.09,874162752629.94,874162752629.94,0,0,1-.08-.16,1.16,1.16,0,0,1,0-.18,1.06,1.06,0,0,1,0-.19s0-.09,0-.17.06-.18.09-.29.07-.22.11-.33.07-.23.1-.33l.11-.32.1-.29.08-.22a.62.62,0,0,0,0-.11l-.1-.11-.21-.2,0,0-.06,0,0,0,0,0-.08,0h-.07a.19.19,0,0,0-.07.06.85.85,0,0,0-.11.16c0,.08-.09.2-.16.36l-.22.51-.21.53c-.06.18-.1.31-.13.42s0,.11,0,.21a2.21,2.21,0,0,0-.07.3c0,.1,0,.2,0,.29a.52.52,0,0,0,0,.19Z" transform="translate(-0.33 -0.93)"/><path class="cls-1" d="M100.83,38.9c0-.11.07-.22.1-.33a2.11,2.11,0,0,1,.1-.3c.08-.22.16-.45.25-.67s.17-.44.26-.66.17-.44.27-.68a4,4,0,0,0,.22-.75l.07-.24a2.56,2.56,0,0,0,.05-.27,2.45,2.45,0,0,0,0-.27.56.56,0,0,0-.06-.23.62.62,0,0,0-.18-.18,1.2,1.2,0,0,0-.24-.15.91.91,0,0,0-.23-.08c-.07,0-.11,0-.12,0s0,0,0,.1a1.78,1.78,0,0,1-.06.35,2.29,2.29,0,0,0-.07.28c0,.1,0,.19-.07.28a2.45,2.45,0,0,1-.08.29l-.06.16q0,.15-.12.36l-.15.43-.15.39-.24.63-.24.62c0,.1-.08.2-.12.32a2.06,2.06,0,0,0-.12.35c0,.06,0,.13-.07.2a1,1,0,0,0-.06.22,1.62,1.62,0,0,0,0,.19.32.32,0,0,0,0,.14,1.44,1.44,0,0,0,.12.17,1.7,1.7,0,0,0,.2.19.91.91,0,0,0,.17.09l.16.08.14,0h.05a.41.41,0,0,0,.28,0h0l.07,0a2.83,2.83,0,0,0,.32-.22l.14-.19.18-.26.15-.25a.74.74,0,0,0,.08-.16s0,0-.05-.07-.08,0-.1,0l-.1.13-.12.18-.13.17-.1.13-.1.12a.12.12,0,0,1-.09.06s0,0-.06,0a.41.41,0,0,1,0-.09,1,1,0,0,1-.11-.23c0-.05,0-.1,0-.14A.93.93,0,0,0,100.83,38.9Z" transform="translate(-0.33 -0.93)"/><path class="cls-1" d="M104.82,38.63c.08-.25.16-.51.25-.76s.18-.5.27-.76l.24-.64c.09-.21.16-.42.23-.64a0,0,0,0,0,0,0s0-.13.08-.23.06-.2.09-.31a1.87,1.87,0,0,0,0-.32.54.54,0,0,0-.05-.27.47.47,0,0,0-.16-.19,1.49,1.49,0,0,0-.24-.14,1.19,1.19,0,0,0-.22-.08h-.12a.49.49,0,0,0,0,.12q0,.11-.06.33c0,.09-.05.18-.08.27a1.82,1.82,0,0,1-.07.25c0,.09,0,.17-.07.25v0a0,0,0,0,0,0,0h0l-.27.71-.27.71,0,.06a.72.72,0,0,0-.34-.58v0l-.22-.09a.55.55,0,0,0-.31,0l-.12,0-.13.06a1.34,1.34,0,0,0-.36.3,2.81,2.81,0,0,0-.29.42,3.07,3.07,0,0,0-.17.31c0,.1-.1.2-.14.3l-.1.22-.12.29c0,.11-.08.21-.11.32a1.14,1.14,0,0,0-.07.28,2,2,0,0,0,0,.33v0a1.45,1.45,0,0,0,0,.25.42.42,0,0,0,0,.14.36.36,0,0,0,.22.18,1.14,1.14,0,0,0,.32.07h.49c.06,0,.09,0,.1,0l.06,0a.71.71,0,0,0,.14-.1.6.6,0,0,0,.11-.12l.1-.11a1,1,0,0,0,.1-.15.55.55,0,0,1,.1-.14l0,0a2,2,0,0,0,0,.23.39.39,0,0,0,0,.17,1,1,0,0,0,.17.23h0l0,0,0,0a1.18,1.18,0,0,0,.19.11l.19.06a.4.4,0,0,0,.41,0,.24.24,0,0,0,.11,0,1.38,1.38,0,0,0,.31-.22,1,1,0,0,0,.14-.18c.06-.08.11-.17.17-.26l.14-.25a1.28,1.28,0,0,0,.07-.16s0,0-.06-.06a.08.08,0,0,0-.1,0,.73.73,0,0,0-.09.13,1.63,1.63,0,0,1-.11.17,1,1,0,0,1-.11.17l-.09.13-.1.12s-.07.06-.1.06,0,0-.05,0l-.06-.09-.06-.13s0-.09-.06-.15,0-.2.07-.3A2,2,0,0,1,104.82,38.63ZM104,37.38l0,.25a2.44,2.44,0,0,1-.06.26c-.08.18-.15.32-.2.42a1.56,1.56,0,0,1-.13.26l-.11.19c0,.06-.08.13-.13.21l-.08.13a.76.76,0,0,1-.08.13,1,1,0,0,1-.13.15.2.2,0,0,1-.15,0c-.07,0-.11,0-.12-.14h0a1.24,1.24,0,0,1,0-.18c0-.05,0-.11,0-.17a3.9,3.9,0,0,1,.13-.57c.06-.18.12-.36.17-.53s.14-.39.22-.57a3.5,3.5,0,0,1,.29-.54l.06-.07.06,0a.15.15,0,0,1,.17,0h0a.37.37,0,0,1,.06.1.5.5,0,0,1,.1.31C104,37.15,104,37.26,104,37.38Z" transform="translate(-0.33 -0.93)"/><path class="cls-1" d="M112.94,38.79l-.09.16c-.06.11-.13.22-.21.34l-.25.37A2,2,0,0,1,112,40a1.27,1.27,0,0,1-.37.18,1.74,1.74,0,0,1-.73,0,2,2,0,0,1-.66-.21,2,2,0,0,1-.52-.45,1.46,1.46,0,0,1-.17-.24c0-.08-.09-.17-.13-.26l0-.08a.84.84,0,0,1,0-.14l0-.24a.22.22,0,0,0,0-.08.31.31,0,0,0,0-.08c0-.1,0-.18,0-.24a1.15,1.15,0,0,1,0-.14.23.23,0,0,1,0-.07s0,0,0,0,0,0-.1.06l-.21.16-.22.19-.16.16a.59.59,0,0,0-.1.16.33.33,0,0,0,0,.15.81.81,0,0,0,0,.2c0,.08,0,.19.07.32l0,0a0,0,0,0,1,0,0,0,0,0,0,0,0,0,2,2,0,0,0,1.23,1.32,2.25,2.25,0,0,0,.89.15H111l.36,0,.19-.06.29-.1a1.69,1.69,0,0,0,.27-.1l.18-.07.18-.11.2-.14c.15-.12.31-.25.46-.39a4.69,4.69,0,0,0,.42-.47l.12-.16a1.42,1.42,0,0,0,.11-.18q.27-.42.51-.87c.16-.3.31-.6.45-.91s.26-.57.38-.86a7.25,7.25,0,0,0,.29-.9.45.45,0,0,1,0-.08h0c0-.09,0-.18.07-.28a1.9,1.9,0,0,0,0-.25,2.44,2.44,0,0,0,0-.26,1,1,0,0,0-.1-.38.42.42,0,0,0-.23-.21l-.15,0-.08,0h-.09c-.09,0-.15,0-.17,0s0,0,0,0v.06s0,.07,0,.11a1.21,1.21,0,0,1,0,.18.61.61,0,0,1-.06.25,1.23,1.23,0,0,1-.12.26c-.05.09-.1.18-.16.27h0l-.11.15-.11.15c-.16.23-.34.45-.52.67s-.35.43-.52.65-.34.43-.5.64-.32.42-.5.64l-.07.08-.07.09-.08.07s0,0,0,0,0,0,0,0a.23.23,0,0,1,0-.11l0-.12a.3.3,0,0,1,0-.1c.09-.27.19-.52.29-.76s.19-.49.29-.76l.13-.35c0-.13.09-.26.13-.4s.08-.28.11-.42a2.08,2.08,0,0,0,0-.42v-.05a.13.13,0,0,1,0-.06,1.54,1.54,0,0,0-.12-.47.39.39,0,0,0-.25-.25l-.19,0h-.43a.16.16,0,0,0,0,.06.09.09,0,0,0,0,.11l0,0a.36.36,0,0,0,0,.09.42.42,0,0,0,0,.1,1.13,1.13,0,0,1,0,.45c0,.14-.06.25-.09.35s-.15.49-.23.73-.15.48-.24.73-.19.49-.28.73-.18.49-.26.74a2.89,2.89,0,0,0-.11.47,1,1,0,0,0,0,.45v0a1.08,1.08,0,0,0,.08.19.71.71,0,0,0,.1.14.33.33,0,0,0,.14.1.44.44,0,0,0,.15.05.32.32,0,0,0,.17,0h0a.67.67,0,0,0,.3-.1,1.86,1.86,0,0,0,.28-.21c.08-.09.17-.17.24-.26l.22-.24c.18-.21.36-.42.53-.64l.51-.66.1-.13.1-.14h0v0c-.12.24-.24.48-.37.71l-.39.71h0Z" transform="translate(-0.33 -0.93)"/><path class="cls-1" d="M115.41,39.65a1.42,1.42,0,0,0,.37.18l.14,0,.14,0h.26a1,1,0,0,0,.42-.25.18.18,0,0,0,.05.07l0,0a.46.46,0,0,0,.25.14.6.6,0,0,0,.28,0h0l.06,0a1.44,1.44,0,0,0,.31-.22l.15-.18a2.26,2.26,0,0,0,.16-.26l.14-.25a1.41,1.41,0,0,0,.07-.15s0,0-.06-.07-.07,0-.09,0l-.1.13-.11.17a1.63,1.63,0,0,1-.11.17l-.09.13-.1.12s-.07.06-.1.06,0,0,0-.05l0-.09a.89.89,0,0,1-.08-.17,1.34,1.34,0,0,1-.07-.18l.07-.13a.75.75,0,0,0,.06-.13,2.14,2.14,0,0,0,.12-.28,1.85,1.85,0,0,1,.09-.23c0-.14.08-.26.11-.35s0-.2.09-.33a2,2,0,0,0,.06-.5,1,1,0,0,0-.15-.49l0,0,0,0v0a.69.69,0,0,0-.42-.19,1.57,1.57,0,0,0-.61,0,.85.85,0,0,0-.22.09,1.33,1.33,0,0,0-.19.14,1.12,1.12,0,0,0-.23.25l0,0,0,0,0,0-.09.14-.1.14a4.8,4.8,0,0,0-.25.52,2.55,2.55,0,0,0-.15.44,5.41,5.41,0,0,0-.12.58,2.41,2.41,0,0,0,0,.6A.49.49,0,0,0,115.41,39.65Zm.69-.9c0-.12,0-.24.07-.35a1.58,1.58,0,0,1,.08-.28c0-.09.07-.18.1-.25a1.36,1.36,0,0,1,.1-.21,2,2,0,0,1,.1-.21l.12-.24a.2.2,0,0,1,0-.08,1.13,1.13,0,0,1,.1-.13.13.13,0,0,1,.13-.06A.1.1,0,0,1,117,37a.36.36,0,0,1,0,.09.49.49,0,0,1,0,.14,1.61,1.61,0,0,1,0,.25l-.06.35a6.53,6.53,0,0,1-.32,1.09l-.09.2-.09.2a.58.58,0,0,1-.1.12.28.28,0,0,1-.14.09.12.12,0,0,1-.1,0,.12.12,0,0,1,0-.05,1.34,1.34,0,0,1,0-.35A2.34,2.34,0,0,1,116.1,38.75Z" transform="translate(-0.33 -0.93)"/><path class="cls-1" d="M120.07,39.72a1.14,1.14,0,0,0,.2.19.82.82,0,0,0,.2.12l.2.08h.11a.62.62,0,0,0,.23,0l0,0,.07,0,.17-.12.15-.1a1.45,1.45,0,0,0,.15-.2,2.61,2.61,0,0,0,.17-.28,1.82,1.82,0,0,0,.15-.27.74.74,0,0,0,.07-.18s0,0,0-.06-.08,0-.1,0l-.1.15-.13.19-.12.2-.1.14a.43.43,0,0,1-.11.12.24.24,0,0,1-.09.07.17.17,0,0,1-.06-.06.41.41,0,0,0-.05-.09l-.06-.11c0-.08,0-.16.07-.23a1.07,1.07,0,0,1,.06-.17c.08-.23.15-.43.22-.59s.13-.37.2-.59a1.1,1.1,0,0,0,0-.11l0-.1a2.32,2.32,0,0,0,.08-.22,1.78,1.78,0,0,0,.09-.33c0-.11,0-.21.07-.31a.44.44,0,0,0,0-.21.53.53,0,0,0-.17-.16.94.94,0,0,0-.22-.12.74.74,0,0,0-.21-.07l-.12,0a.38.38,0,0,0,0,.08,2,2,0,0,1-.06.31l-.08.26c0,.1-.07.2-.1.31l-.1.3a1.65,1.65,0,0,1-.07.21l0,0s0,0,0,0a4.72,4.72,0,0,1-.26.55,4.65,4.65,0,0,1-.32.5,3.66,3.66,0,0,1-.31.35,1.51,1.51,0,0,1-.34.24c-.07,0-.11,0-.12,0a.32.32,0,0,1,0-.14,1.55,1.55,0,0,1,.14-.53,4.76,4.76,0,0,0,.19-.49l.06-.16.06-.17h0v0s0-.12.09-.23.09-.24.13-.37a1.78,1.78,0,0,0,.1-.38.57.57,0,0,0,0-.27.44.44,0,0,0-.17-.16l-.26-.13-.24-.06-.13,0s0,0,0,.08a1.5,1.5,0,0,1-.07.31c0,.08,0,.18-.09.31a2.53,2.53,0,0,1-.12.36l-.15.44h0c0,.09-.08.18-.11.27s-.07.18-.1.27a3.57,3.57,0,0,1-.14.34,3.12,3.12,0,0,0-.15.39,1.78,1.78,0,0,0-.07.39.48.48,0,0,0,.12.33s.05,0,.1.06l.16,0a1.82,1.82,0,0,0,.35,0,1.22,1.22,0,0,0,.46-.09,1.82,1.82,0,0,0,.27-.15l.25-.19a.28.28,0,0,0,0,.17A.91.91,0,0,0,120.07,39.72Z" transform="translate(-0.33 -0.93)"/><path class="cls-1" d="M124,37.2q-.07.19-.15.36a3.84,3.84,0,0,0-.17.35l-.18.44a3.66,3.66,0,0,0-.15.43,1.61,1.61,0,0,0-.06.44,1.07,1.07,0,0,0,.08.45l0,.06a.15.15,0,0,0,.07.05l.18.07.17,0a.31.31,0,0,0,.19,0,.62.62,0,0,0,.23,0l0,0,.07,0a1.46,1.46,0,0,0,.3-.22l.16-.17.18-.25a1.58,1.58,0,0,0,.15-.24.56.56,0,0,0,.07-.15s0-.05,0-.07-.08,0-.1,0l-.1.13-.13.16-.12.16a.77.77,0,0,0-.1.12.69.69,0,0,1-.11.13.35.35,0,0,1-.09.06s0,0-.08-.09a.86.86,0,0,1,0-.22v-.29a1.49,1.49,0,0,1,0-.21c0-.06,0-.13,0-.19l.06-.2c0-.13.09-.25.13-.36a3.38,3.38,0,0,1,.11-.34,1.21,1.21,0,0,0,.05-.14.58.58,0,0,0,0-.14,1.56,1.56,0,0,0,0-.16,2.19,2.19,0,0,0,.07-.23.63.63,0,0,0,0-.25.58.58,0,0,0,0-.2.23.23,0,0,0-.16-.16l-.17,0h-.09a.34.34,0,0,0-.1,0h-.08a.86.86,0,0,0-.27,0l-.13.05-.13,0-.09,0a.32.32,0,0,1-.13-.19.29.29,0,0,1,0-.09s0-.06,0-.09v0a.72.72,0,0,1,0-.21,2,2,0,0,1,0-.26,3.83,3.83,0,0,1,.09-.42c0-.08,0-.13,0-.13h-.14l-.29,0-.33.06a.51.51,0,0,0-.21.11.3.3,0,0,0-.07.19,1.23,1.23,0,0,0,0,.28c0,.09,0,.19,0,.29s0,.18,0,.24,0,.12,0,.17a.51.51,0,0,0,.09.16l0,0a1,1,0,0,0,.41.2l-.08.22-.15.37c-.16.39-.29.69-.4.91s-.2.42-.29.58-.14.23-.19.31-.08.14-.06.15h.23a2.76,2.76,0,0,0,.24-.34c0-.07.1-.17.17-.27s.13-.22.18-.33l.16-.3.12-.29a1.19,1.19,0,0,0,.08-.16c0-.05,0-.1.07-.16s0-.11.08-.17l.1-.21.07-.14a.93.93,0,0,0,0-.13h.49a.05.05,0,0,1,.06.06.56.56,0,0,1-.06.22A1.71,1.71,0,0,0,124,37.2Z" transform="translate(-0.33 -0.93)"/><path class="cls-1" d="M131.8,35.11c-.15.2-.31.4-.45.61.05-.16.1-.33.14-.5a1.8,1.8,0,0,0,0-.5.94.94,0,0,0-.13-.44A.82.82,0,0,0,131,34l-.09,0h-.14a.22.22,0,0,0-.12,0,.07.07,0,0,0-.05.08c0,.07,0,.13,0,.17a.42.42,0,0,1,0,.18.7.7,0,0,1,0,.29l-.09.27c-.07.24-.15.48-.24.73l-.27.73c-.14.42-.3.83-.45,1.25a1.76,1.76,0,0,0-.1.3,1,1,0,0,0,0,.3,1.36,1.36,0,0,0,.06.29.76.76,0,0,0,.2.25l.13.06a.58.58,0,0,0,.18,0,.32.32,0,0,0,.17,0,.13.13,0,0,0,.09-.1c.06-.21.11-.41.16-.61a3.73,3.73,0,0,1,.2-.59c.08-.2.16-.4.22-.6l.21-.61.21-.3.23-.3.35-.47a1.55,1.55,0,0,1,.41-.4.79.79,0,0,1,.35-.1.86.86,0,0,1,.36.08.61.61,0,0,1,.31.32,1.54,1.54,0,0,1,.14.43,3.7,3.7,0,0,1,.09,1,3.35,3.35,0,0,1-.19,1,2.88,2.88,0,0,1-.19.45,2.19,2.19,0,0,1-.26.41,2.13,2.13,0,0,1-.19.22,2.4,2.4,0,0,1-.37.3,2.81,2.81,0,0,1-.52.27,1.76,1.76,0,0,1-.66.12h-.55a2.05,2.05,0,0,1-.55-.1,1.24,1.24,0,0,1-.32-.15.92.92,0,0,1-.34-.38c0-.13-.1-.29-.16-.47a1.9,1.9,0,0,1-.11-.49s-.05-.07-.13-.12a.45.45,0,0,0-.35-.06.93.93,0,0,0-.21.05l-.12.07-.08.08,0,0s0,.06,0,.13a1,1,0,0,0,0,.27,2.54,2.54,0,0,0,.1.36c0,.13.11.27.18.41l.14.22.14.17a1.22,1.22,0,0,0,.17.15,1.33,1.33,0,0,0,.19.14,1.69,1.69,0,0,0,.31.13,2.14,2.14,0,0,0,.35.06,2.38,2.38,0,0,0,.65.05,4.93,4.93,0,0,0,.66-.07,2.43,2.43,0,0,0,.79-.24,3.32,3.32,0,0,0,.69-.46,1.31,1.31,0,0,0,.18-.17l.2-.2.16-.18s.07-.07.07-.08c.16-.19.31-.39.45-.59a4.17,4.17,0,0,0,.35-.66,5.34,5.34,0,0,0,.21-.64,4.08,4.08,0,0,0,.11-.7,2.72,2.72,0,0,0,0-.7,2.4,2.4,0,0,0-.19-.66.84.84,0,0,0-.36-.4.83.83,0,0,0-.46-.11,1.15,1.15,0,0,0-.5.12,2.06,2.06,0,0,0-.46.27A3.58,3.58,0,0,0,131.8,35.11Z" transform="translate(-0.33 -0.93)"/><path class="cls-1" d="M136.66,37.2a3,3,0,0,1-.16.36l-.16.35-.18.44a3.66,3.66,0,0,0-.15.43,1.61,1.61,0,0,0-.06.44,1.07,1.07,0,0,0,.08.45l.05.06a.12.12,0,0,0,.07.05l.18.07.17,0a.31.31,0,0,0,.19,0,.62.62,0,0,0,.23,0l0,0,.07,0a1.46,1.46,0,0,0,.3-.22l.16-.17.18-.25a1.58,1.58,0,0,0,.15-.24.56.56,0,0,0,.07-.15s0-.05,0-.07-.08,0-.1,0l-.1.13-.13.16-.12.16-.1.12a.69.69,0,0,1-.11.13.35.35,0,0,1-.09.06s-.05,0-.08-.09a.86.86,0,0,1,0-.22v-.29a1.49,1.49,0,0,1,0-.21c0-.06,0-.13,0-.19l.06-.2c0-.13.09-.25.13-.36a3.38,3.38,0,0,1,.11-.34,1.21,1.21,0,0,0,0-.14.58.58,0,0,0,.05-.14,1.56,1.56,0,0,0,.05-.16,2.19,2.19,0,0,0,.07-.23.63.63,0,0,0,0-.25.58.58,0,0,0,0-.2.23.23,0,0,0-.16-.16l-.17,0h-.09a.34.34,0,0,0-.1,0H137a.86.86,0,0,0-.27,0l-.13.05-.13,0-.09,0a.32.32,0,0,1-.13-.19.29.29,0,0,1,0-.09s0-.06,0-.09v0a.72.72,0,0,1,0-.21,2,2,0,0,1,0-.26,2.35,2.35,0,0,1,.09-.42c0-.08,0-.13,0-.13h-.14l-.29,0-.33.06a.51.51,0,0,0-.21.11.3.3,0,0,0-.07.19,1.23,1.23,0,0,0,0,.28c0,.09,0,.19,0,.29s0,.18,0,.24,0,.12.05.17a.51.51,0,0,0,.09.16l0,0a1,1,0,0,0,.41.2l-.08.22-.15.37c-.16.39-.29.69-.4.91s-.2.42-.29.58-.14.23-.19.31-.08.14-.06.15H135a2.76,2.76,0,0,0,.24-.34c0-.07.1-.17.17-.27s.13-.22.18-.33l.16-.3.12-.29.08-.16c0-.05,0-.1.07-.16s.05-.11.08-.17l.1-.21a.91.91,0,0,0,.07-.14.93.93,0,0,0,0-.13h.49a.05.05,0,0,1,.06.06.56.56,0,0,1-.06.22A1.71,1.71,0,0,0,136.66,37.2Z" transform="translate(-0.33 -0.93)"/><path class="cls-1" d="M138.27,39.47a.9.9,0,0,0,.35.25,1.46,1.46,0,0,0,.47.1,1.73,1.73,0,0,0,.93-.26,2.08,2.08,0,0,0,.36-.29,2.15,2.15,0,0,0,.32-.38h0a0,0,0,0,0,0,0l0,0-.11,0-.07,0-.08,0-.09.07,0,0a2.2,2.2,0,0,1-.46.29,1.53,1.53,0,0,1-.37.08.89.89,0,0,1-.55-.14.26.26,0,0,1-.07-.16.45.45,0,0,1,0-.13,1.58,1.58,0,0,1,.06-.23l.08-.23a1.24,1.24,0,0,0,.2-.1l.17-.09.4-.25a2.93,2.93,0,0,0,.36-.28,1.77,1.77,0,0,0,.26-.35.65.65,0,0,0,0-.42.63.63,0,0,0-.16-.35,1,1,0,0,0-.29-.25.39.39,0,0,0-.17-.09h-.14a.53.53,0,0,0-.16,0,.42.42,0,0,0-.18.08l-.13.1-.17.14a1.07,1.07,0,0,0-.14.16,3.16,3.16,0,0,0-.34.5,4.43,4.43,0,0,0-.26.54,4,4,0,0,0-.17.44,2.72,2.72,0,0,0-.1.46,1.54,1.54,0,0,0,0,.43A.83.83,0,0,0,138.27,39.47Zm.84-1.29,0,0c.05-.13.12-.27.18-.4s.14-.26.22-.39a.13.13,0,0,1,.06-.07.09.09,0,0,1,.06,0,.09.09,0,0,1,.07,0l0,.06a.93.93,0,0,1,0,.13.33.33,0,0,1,0,.26.63.63,0,0,1-.18.22,1.1,1.1,0,0,1-.25.17l-.24.11h0S139.1,38.19,139.11,38.18Z" transform="translate(-0.33 -0.93)"/><path class="cls-1" d="M140.89,39.66a.33.33,0,0,0,.12.05l.12,0,.11,0h.38a.31.31,0,0,0,.19,0,.64.64,0,0,0,.19-.08.88.88,0,0,0,.17-.12l.15-.12.08-.09a.81.81,0,0,0,.09-.1c0,.06,0,.1,0,.13a.21.21,0,0,0,.05.12.87.87,0,0,1,.12.14l.08.09.08.07a.46.46,0,0,0,.52.09l.1,0a1,1,0,0,0,.31-.22l.15-.18a2.13,2.13,0,0,0,.16-.25l.14-.25a1.27,1.27,0,0,0,.06-.16s0,0-.05-.07a.09.09,0,0,0-.09,0l-.1.14-.11.16c0,.06-.07.12-.11.17l-.09.14-.1.11a.12.12,0,0,1-.09.06.05.05,0,0,1-.06,0,.41.41,0,0,1-.05-.09.7.7,0,0,1-.08-.2,1.72,1.72,0,0,0-.07-.21,5.14,5.14,0,0,1,.17-.89c0-.14.08-.28.13-.43s.1-.28.15-.42l0-.09,0-.1,0,0a2.1,2.1,0,0,1,.16-.36l.12-.22a1.18,1.18,0,0,1,.08-.12s0,0,0,0a.5.5,0,0,0-.16,0l-.22,0h-.38a.47.47,0,0,0-.18.19,3.17,3.17,0,0,0-.38-.17.67.67,0,0,0-.37,0,.71.71,0,0,0-.28.13,1.48,1.48,0,0,0-.25.25c-.08.09-.15.19-.22.28l-.17.26a5.78,5.78,0,0,0-.56,1.11c0,.1-.07.2-.11.31s-.07.23-.1.34a2.09,2.09,0,0,0,0,.35.81.81,0,0,0,.06.31A.13.13,0,0,0,140.89,39.66Zm1-1.31.26-.55.21-.4.25-.38a1.06,1.06,0,0,1,.24-.3.45.45,0,0,1,.2,0h0a.15.15,0,0,1,0,.06c-.07.15-.14.3-.2.45s-.11.3-.16.45-.06.2-.08.29l-.06.3a1.32,1.32,0,0,1-.25.3l-.27.23a1.19,1.19,0,0,1-.15.09.43.43,0,0,1-.17.06A3.52,3.52,0,0,1,141.91,38.35Z" transform="translate(-0.33 -0.93)"/><path class="cls-1" d="M147.88,36.3l-.15.09-.07.06a1.26,1.26,0,0,0-.22.24,1.77,1.77,0,0,0-.17.24l0,0,0,0a1,1,0,0,0,0-.46.88.88,0,0,0-.06-.17.36.36,0,0,0-.23-.13.72.72,0,0,0-.25,0,.46.46,0,0,0-.27.13,1.29,1.29,0,0,0-.2.21l-.08.09a.39.39,0,0,1-.08.1,1,1,0,0,0,0-.24.3.3,0,0,0,0-.19.35.35,0,0,0-.14-.16l-.2-.13-.19-.07c-.06,0-.1,0-.11,0s0,0,0,.09a2.75,2.75,0,0,1-.07.3c0,.14-.09.27-.13.41s-.09.27-.13.39l-.1.32c0,.1-.06.17-.08.21a.76.76,0,0,0,0,.11c0,.09-.06.16-.09.23l-.07.18a1.42,1.42,0,0,0-.08.18l-.09.22v0h0l-.07.17-.09.24c0,.08-.06.16-.08.23s0,.12,0,.15a.44.44,0,0,0,.1.12l.18.17a.67.67,0,0,0,.28.14c.1,0,.15,0,.16,0l0-.07a1.31,1.31,0,0,0,.05-.15l.08-.22.12-.35.13-.38c0-.11.08-.22.13-.33l.12-.34.13-.38,0-.07,0-.08a1.13,1.13,0,0,0,.1-.13l.1-.12.15-.22.14-.21.17-.19a.5.5,0,0,0,0,.12l0,.12c0,.12-.07.24-.11.36l-.12.36-.1.28-.08.24c0,.07-.05.15-.08.23l-.09.28-.07.17-.09.24-.06.23a.32.32,0,0,0,0,.14.5.5,0,0,0,.09.13,1.52,1.52,0,0,0,.18.17.7.7,0,0,0,.27.14c.1,0,.16,0,.16,0l0-.07s0-.09.05-.15a.94.94,0,0,0,0-.17c0-.09.05-.19.08-.28s.08-.24.12-.38l.09-.25c0-.08,0-.16.08-.25l.08-.18L147,38a1,1,0,0,0,.07-.15,1.14,1.14,0,0,0,.09-.19l.16-.3.18-.29a3,3,0,0,1,.18-.25.52.52,0,0,1,.22-.18l0,.17c0,.06,0,.11,0,.17s-.09.28-.14.42a3.52,3.52,0,0,1-.15.42c0,.08,0,.16-.07.22l-.06.19-.07.18c0,.06-.05.14-.07.22l-.08.17-.09.23c0,.08,0,.16-.06.23a.21.21,0,0,0,0,.16,1.15,1.15,0,0,0,.14.19,1,1,0,0,0,.22.19l.12,0,.17,0,.16,0h.29a.33.33,0,0,0,.14-.12,1.71,1.71,0,0,0,.11-.14,1.4,1.4,0,0,0,.13-.2l.15-.26.14-.25a1.28,1.28,0,0,0,.07-.16s0,0-.06-.06a.06.06,0,0,0-.09,0,2.39,2.39,0,0,1-.13.24l-.11.15-.08.11-.09.09a.29.29,0,0,1-.11.11.21.21,0,0,1-.11,0,.18.18,0,0,1-.14-.08.28.28,0,0,1,0-.11.33.33,0,0,1,0-.1c0-.05,0-.1.05-.15s0-.14.07-.22l.09-.28a2.25,2.25,0,0,0,.08-.24c0-.07.05-.15.08-.24l.09-.28a3.17,3.17,0,0,0,.12-.41,2.26,2.26,0,0,0,.07-.43,1.63,1.63,0,0,0,0-.32.49.49,0,0,0-.09-.3.27.27,0,0,0-.17-.07.64.64,0,0,0-.27,0Z" transform="translate(-0.33 -0.93)"/></svg>