<svg xmlns="http://www.w3.org/2000/svg" width="35.36" height="54" viewBox="0 0 35.36 54">
  <g id="Group_1874" data-name="Group 1874" transform="translate(-130.954 -2356)">
    <ellipse id="Ellipse_80" data-name="Ellipse 80" cx="9" cy="5.5" rx="9" ry="5.5" transform="translate(146 2384)" fill="#ffa64d"/>
    <g id="Group_1873" data-name="Group 1873">
      <g id="experience" transform="translate(42.588 2356)">
        <path id="Path_2024" data-name="Path 2024" d="M122.144,44.058H96.614V26.887h1.807A1.582,1.582,0,0,0,100,25.305V23.5h4.653a10.055,10.055,0,1,0,14.643,0h1.151a1.582,1.582,0,0,0,0-3.164h-3.5V13.444a1.582,1.582,0,0,0-1.582-1.582h-6.778a1.582,1.582,0,0,0-1.582,1.582v6.891h-7V18.527a1.582,1.582,0,0,0-1.582-1.582H96.614V1.582a1.582,1.582,0,1,0-3.164,0V16.945H91.643a1.582,1.582,0,0,0-1.582,1.582v6.778a1.582,1.582,0,0,0,1.582,1.582H93.45v17.17h-3.5a1.582,1.582,0,0,0-1.582,1.582v6.778A1.582,1.582,0,0,0,89.948,54h32.2a1.582,1.582,0,0,0,1.582-1.582V45.64A1.582,1.582,0,0,0,122.144,44.058ZM110.17,15.026h3.614v5.309H110.17Zm1.807,8.473a6.9,6.9,0,0,1,6.856,6.2,4.408,4.408,0,0,1-5.737-.429l-.023-.022a7.565,7.565,0,0,0-7.26-1.951,6.89,6.89,0,0,1,6.163-3.8Zm-1.119,8.009.022.022a7.565,7.565,0,0,0,7.254,1.953,6.891,6.891,0,0,1-13.014-2.4A4.408,4.408,0,0,1,110.858,31.507ZM93.225,23.723V20.109h3.614v3.614Zm27.338,27.113H91.53V47.222h29.032Z"/>
        <circle id="Ellipse_78" data-name="Ellipse 78" cx="1.582" cy="1.582" r="1.582" transform="translate(107.853 5.084)"/>
        <circle id="Ellipse_79" data-name="Ellipse 79" cx="1.582" cy="1.582" r="1.582" transform="translate(112.937 0)"/>
      </g>
    </g>
  </g>
</svg>
