<?xml version="1.0" encoding="utf-8"?>
<!-- Generator: Adobe Illustrator 22.0.1, SVG Export Plug-In . SVG Version: 6.00 Build 0)  -->
<svg version="1.1" id="Layer_1" xmlns="http://www.w3.org/2000/svg" xmlns:xlink="http://www.w3.org/1999/xlink" x="0px" y="0px"
	 viewBox="0 0 50 50" style="enable-background:new 0 0 50 50;" xml:space="preserve">
<style type="text/css">
	.st0{opacity:0;fill:#FFFFFF;}
	.st1{fill:#F0BC5E;}
	.st2{fill:#D3D3D3;}
</style>
<g>
	<rect class="st0" width="50" height="50"/>
	<g id="upcoming_1_" transform="translate(954 382.467)">
		<g id="Group_1724_1_" transform="translate(10.547 6.745)">
			<g id="Group_1723_1_">
				<path id="Path_1959_1_" class="st1" d="M-944.6-372.3c-1.6,0-2.9-1.3-2.9-2.9s1.3-2.9,2.9-2.9c1.6,0,2.9,1.3,2.9,2.9
					C-941.7-373.6-943-372.3-944.6-372.3z"/>
			</g>
		</g>
		<g id="Group_1726_1_" transform="translate(12.457 15.338)">
			<g id="Group_1725_1_">
				<path id="Path_1960_1_" class="st1" d="M-936.4-363.5h-10.2v-10.2h10.2V-363.5z"/>
			</g>
		</g>
		<g id="Group_1727_1_" transform="translate(1 1.033)">
			<path id="Path_1961_1_" class="st2" d="M-907.5-359.3v-4.4h-1.8l-5.8-8.7h-10.2l-8-8c-1-0.9-2.5-0.9-3.5,0l-15.2,15.2
				c-0.7,0.7-0.7,1.8,0,2.5c0.3,0.3,0.8,0.5,1.2,0.5h1.2v16h-0.7c-1.2,0-2.2,1-2.2,2.2v5.8c0,1.2,1,2.2,2.2,2.2h17.6l4.4-2.9h12.5
				l0.8,0.8c0.4,0.4,1,0.6,1.5,0.6h3.8c1.2,0,2.2-1,2.2-2.2v-2.9c0-0.9-0.6-1.7-1.5-2v-14.6L-907.5-359.3L-907.5-359.3z M-909-360.8
				h-11.6v-1.5h11.6V-360.8z M-916.2-340.5h-11.6v-1.5h11.6V-340.5z M-933.6-344.8v1.5h-10.2c-0.8,0-1.5,0.7-1.5,1.5v1.5
				c0,0.8,0.7,1.5,1.5,1.5h10.2v1.5h-13.1v-7.3h13.1V-344.8z M-938-346.3h-5.8v-11.6h5.8V-346.3z M-933.6-340.5h-10.2v-1.5h10.2
				V-340.5z M-932.2-344.2l2.9,1.9v2.1l-2.9,1.9V-344.2z M-915.9-371l4.8,7.3h-6.6c0-0.1,0-0.2,0-0.3c0-0.5-0.2-0.9-0.5-1.2
				l-5.7-5.7L-915.9-371L-915.9-371z M-951-364c0-0.1,0-0.2,0.1-0.2l15.2-15.2c0.4-0.4,1.1-0.4,1.5,0l0,0l15.1,15.2
				c0.1,0.1,0.1,0.3,0,0.4c-0.1,0.1-0.1,0.1-0.2,0.1h-1.3l-14.3-14.3l-14.3,14.3h-1.3C-950.9-363.7-951.1-363.8-951-364L-951-364z
				 M-922.8-363.7h-24.6l12.3-12.3L-922.8-363.7z M-948.1-362.2h26.1v18.9h-6.3l-4.4-2.9h-3.9v-13.1h-8.7v13.1h-2.9v-16H-948.1z
				 M-951-338.3v-5.8c0-0.4,0.3-0.7,0.7-0.7h2.2v7.3h-2.2C-950.7-337.6-951-337.9-951-338.3z M-909-339.7c0,0.4-0.3,0.7-0.7,0.7
				h-3.7c-0.2,0-0.4-0.1-0.5-0.2l-0.8-0.8v-2.3l0.8-0.8c0.1-0.1,0.3-0.2,0.5-0.2h3.8c0.4,0,0.7,0.3,0.7,0.7L-909-339.7z
				 M-910.4-344.8h-3c-0.6,0-1.1,0.2-1.5,0.6l-0.8,0.8h-4.8v-16h10.2L-910.4-344.8z"/>
			<path id="Path_1962_1_" class="st2" d="M-930.7-349.2h1.5v-4.4h4.4v-1.5h-4.4v-4.4h-1.5v4.4h-4.4v1.5h4.4V-349.2z"/>
		</g>
		<g id="Group_1729_1_" transform="translate(22.959 17.247)">
			<g id="Group_1728_1_">
				<path id="Path_1963_1_" class="st1" d="M-933.8-363.9h-7.3v-8.7h7.3V-363.9z"/>
			</g>
		</g>
	</g>
</g>
</svg>
