<?xml version="1.0" encoding="utf-8"?>
<!-- Generator: Adobe Illustrator 22.0.1, SVG Export Plug-In . SVG Version: 6.00 Build 0)  -->
<svg version="1.1" id="Layer_1" xmlns="http://www.w3.org/2000/svg" xmlns:xlink="http://www.w3.org/1999/xlink" x="0px" y="0px"
	 viewBox="0 0 50 50" style="enable-background:new 0 0 50 50;" xml:space="preserve">
<style type="text/css">
	.st0{opacity:0;fill:#FFFFFF;}
	.st1{fill:#F0BC5E;}
	.st2{fill:#D3D3D3;}
</style>
<g>
	<rect class="st0" width="50" height="50"/>
	<g id="Group_1871" transform="translate(-755 -382.904)">
		<g id="Group_1721" transform="translate(763.119 393.046)">
			<path id="Path_1952" class="st1" d="M25.1,16.9c0-1.3,0.5-2.5,1.2-3.5C23.9,8,17.6,5.6,12.2,8.1s-7.8,8.8-5.3,14.2
				c0.4,1,1,1.9,1.8,2.7h8c-4,0-7.2-3.2-7.2-7.2s3.2-7.2,7.2-7.2s7.2,3.2,7.2,7.2l0,0c0,4-3.2,7.2-7.2,7.2h8c1-1.1,1.7-2.3,2.2-3.7
				C25.6,20.1,25,18.6,25.1,16.9z"/>
		</g>
		<g id="Group_1722" transform="translate(755 382.904)">
			<path id="Path_1953" class="st2" d="M40.1,22.8c-1.6,0-2.9,1.3-2.9,2.9s1.3,2.9,2.9,2.9s2.9-1.3,2.9-2.9
				C43,24.1,41.7,22.8,40.1,22.8z M40.1,27.2c-0.8,0-1.5-0.6-1.5-1.5c0-0.8,0.6-1.5,1.5-1.5c0.8,0,1.5,0.6,1.5,1.5
				C41.6,26.5,40.9,27.2,40.1,27.2z"/>
			<path id="Path_1954" class="st2" d="M45.2,22c-0.8-0.8-1.8-1.4-2.9-1.7v-1.2l0.7,0.4c1.4,0.8,3.2,0.3,3.9-1.1
				c0.7-1.3,0.3-3-1-3.8L26.6,3c-1.1-0.6-2.4-0.6-3.4,0L3.9,14.5c-1.4,0.8-1.8,2.6-1,4c0.8,1.4,2.6,1.8,4,1l0,0l0.7-0.4v28.3h33.3
				c1.2,0,2.2-1,2.2-2.2V43h-1.5v-1.5h1.5v-4.4h-1.5v-1.5h1.5v-2.1c3.7-1.6,5.4-5.9,3.8-9.5C46.4,23.4,45.9,22.6,45.2,22L45.2,22z
				 M6.1,18.3c-0.7,0.4-1.6,0.2-2-0.5c-0.4-0.7-0.2-1.6,0.5-2L24,4.2c0.6-0.4,1.4-0.4,2,0l19.4,11.5c0.7,0.4,0.9,1.3,0.5,2
				c-0.4,0.7-1.3,0.9-2,0.5L26.6,8.1c-1.1-0.6-2.4-0.6-3.4,0L6.1,18.3z M9,18.2l15-8.9c0.6-0.4,1.4-0.4,2,0l15,8.9V20
				c-0.3,0-0.6,0-0.9,0c-3.8,0.2-6.9,3.2-7,7l0,0c-0.1,3,1.6,5.7,4.4,6.9v0.6h-7.8c3.6-2.5,4.5-7.5,2-11.1s-7.5-4.5-11.1-2
				s-4.5,7.5-2,11.1c0.5,0.8,1.2,1.4,2,2h-8.5v1.5h25.3v9.4c0,0.2,0,0.5,0.1,0.7H9V18.2z M25,34.4c-3.6,0-6.5-2.9-6.5-6.5
				s2.9-6.5,6.5-6.5s6.5,2.9,6.5,6.5l0,0C31.4,31.5,28.5,34.4,25,34.4L25,34.4L25,34.4z M42.1,32.7l-0.5,0.2v1.6h-1.5v4.4h1.5v1.5
				h-1.5v4.4h1.5v0.7c0,0.4-0.3,0.7-0.7,0.7l0,0h-1.5c-0.4,0-0.7-0.3-0.7-0.7l0,0V32.8l-0.5-0.2c-2.4-0.8-3.9-3.1-3.9-5.6l0,0
				c0.1-3.1,2.6-5.5,5.6-5.6c0.1,0,0.1,0,0.2,0c3.2,0,5.8,2.6,5.8,5.8C45.9,29.6,44.4,31.8,42.1,32.7L42.1,32.7z"/>
			<path id="Path_1955" class="st2" d="M31.4,43h1.5v1.5h-1.5V43z"/>
			<path id="Path_1956" class="st2" d="M28.5,43H30v1.5h-1.5V43z"/>
			<path id="Path_1957" class="st2" d="M34.3,43h1.5v1.5h-1.5V43z"/>
			<path id="Path_1958" class="st2" d="M25.7,25.7c0.4,0,0.7,0.3,0.7,0.7l0,0h1.5c0-1.2-1-2.2-2.2-2.2v-1.5h-1.5v1.5H22v2.2
				c0,1.2,1,2.2,2.2,2.2h1.5c0.4,0,0.7,0.3,0.7,0.7V30h-2.2c-0.4,0-0.7-0.3-0.7-0.7H22c0,1.2,1,2.2,2.2,2.2V33h1.5v-1.5h2.2v-2.2
				c0-1.2-1-2.2-2.2-2.2h-1.5c-0.4,0-0.7-0.3-0.7-0.7l0,0v-0.7L25.7,25.7z"/>
		</g>
	</g>
</g>
</svg>
