<?xml version="1.0" encoding="utf-8"?>
<!-- Generator: Adobe Illustrator 22.0.1, SVG Export Plug-In . SVG Version: 6.00 Build 0)  -->
<svg version="1.1" id="Layer_1" xmlns="http://www.w3.org/2000/svg" xmlns:xlink="http://www.w3.org/1999/xlink" x="0px" y="0px"
	 viewBox="0 0 50 50" style="enable-background:new 0 0 50 50;" xml:space="preserve">
<style type="text/css">
	.st0{opacity:0;fill:#FFFFFF;}
	.st1{fill:#D3D3D3;}
	.st2{fill:#FFA64D;}
</style>
<g>
	<rect y="0" class="st0" width="50" height="50"/>
	<path id="Path_1947" class="st1" d="M43.1,11.5v-9H33v3.9l-8-4L2.5,13.7v6.7L4,19.7v22.8h9.4V41h-8V19L25,9.2l16.4,8.2L42,16
		L25,7.5L4,18.1v-3.5L25,4.1l21,10.5v3.5l-2.6-1.3l-0.7,1.3l1.8,0.9v22h-7.9v1.5H46V19.7l1.5,0.7v-6.7L43.1,11.5z M41.7,10.8
		l-7.3-3.6V6.9h7.3V10.8z M41.7,5.4h-7.3V4h7.3V5.4z"/>
	<path id="Path_1948" class="st2" d="M41.7,34.5v-7.3h-2.6c-0.3-1.3-0.9-2.6-1.6-3.7l1.9-1.9l-5.1-5.1l-1.9,1.9
		c-1.2-0.7-2.4-1.2-3.7-1.6v-2.6h-7.3v2.6c-1.3,0.3-2.6,0.9-3.7,1.6l-1.9-1.9l-5.1,5.1l1.9,1.9c-0.7,1.2-1.2,2.4-1.6,3.7H8.3v7.3
		h2.6c0.3,1.3,0.9,2.6,1.6,3.7l-1.9,1.9l5.1,5.1l1.9-1.9c1.2,0.7,2.4,1.2,3.7,1.6v2.6h7.3v-2.6c1.3-0.3,2.6-0.9,3.7-1.6l1.9,1.9
		l5.1-5.1l-1.9-1.9c0.7-1.2,1.2-2.4,1.6-3.7H41.7z M25,38.1c-4,0-7.3-3.2-7.3-7.3c0-4,3.2-7.3,7.3-7.3c4,0,7.3,3.2,7.3,7.3l0,0
		C32.3,34.9,29,38.1,25,38.1L25,38.1z"/>
	<g id="Group_1719" transform="translate(7.841 11.358)">
		<path id="Path_1949" class="st1" d="M17.2,27.5c-4.4,0-8-3.6-8-8s3.6-8,8-8s8,3.6,8,8l0,0C25.1,23.9,21.6,27.5,17.2,27.5z
			 M17.2,13c-3.6,0-6.5,2.9-6.5,6.5s2.9,6.5,6.5,6.5s6.5-2.9,6.5-6.5l0,0C23.7,15.9,20.8,13,17.2,13L17.2,13z"/>
		<path id="Path_1950" class="st1" d="M7.4,16.8L6,16.4c1.4-5,6-8.5,11.2-8.5v1.5C12.6,9.3,8.6,12.4,7.4,16.8z"/>
		<path id="Path_1951" class="st1" d="M7,19.5H5.5c0-0.5,0-1,0.1-1.5L7,18.2C7,18.6,7,19,7,19.5z"/>
	</g>
</g>
</svg>
